/* XPM */
static char *_cb6ec3597854f6faa44515ca7e655acqzMg70jgm7AcHv2O[] = {
/* columns rows colors chars-per-pixel */
"32 32 2 1 ",
"  c None",
". c #E01A1A",
/* pixels */
"................................",
"........                ........",
".........              .........",
"..........            ..........",
"...........          ...........",
"............        ............",
".............      .............",
"..............    ..............",
". .............  ............. .",
".  ..........................  .",
".   ........................   .",
".    ......................    .",
".     ....................     .",
".      ..................      .",
".       ................       .",
".        ..............        .",
".        ..............        .",
".       ................       .",
".      ..................      .",
".     ....................     .",
".    ......................    .",
".   ........................   .",
".  ..........................  .",
". .............  ............. .",
"..............    ..............",
".............      .............",
"............        ............",
"...........          ...........",
"..........            ..........",
".........              .........",
"........                ........",
"................................"
};
