/* XPM */
static char *result[] = {
/* columns rows colors chars-per-pixel */
"34 34 159 2 ",
"   c #48372F",
".  c #5C5B00",
"X  c #47421E",
"o  c #4C4C1B",
"O  c #4D4D1F",
"+  c #515517",
"@  c #51521A",
"#  c #675203",
"$  c #675204",
"%  c #626213",
"&  c #524E25",
"*  c #545321",
"=  c #525229",
"-  c #555829",
";  c #515932",
":  c #674638",
">  c #675C3D",
",  c #6A6A20",
"<  c #65622D",
"1  c #727723",
"2  c #76762C",
"3  c #606030",
"4  c #616131",
"5  c #616132",
"6  c #646432",
"7  c #656734",
"8  c #686831",
"9  c #6D6D34",
"0  c #6B6E3D",
"q  c #6C6E3C",
"w  c #756D38",
"e  c #756D39",
"r  c #727136",
"t  c #757336",
"y  c #707039",
"u  c #615A46",
"i  c #5F635C",
"p  c #676742",
"a  c #686944",
"s  c #646649",
"d  c #67684F",
"f  c #696A49",
"g  c #68694C",
"h  c #6A6C4D",
"j  c #716C45",
"k  c #6C7242",
"l  c #747642",
"z  c #7A7A42",
"x  c #737348",
"c  c #7A744D",
"v  c #767949",
"b  c #777A4A",
"n  c #7D7D4D",
"m  c #6D6157",
"M  c #686950",
"N  c #6A6853",
"B  c #6A6953",
"V  c #6D6D52",
"C  c #6E6E53",
"Z  c #6D645C",
"A  c #716A50",
"S  c #756958",
"D  c #717150",
"F  c #717152",
"G  c #727052",
"H  c #7B7451",
"J  c #777856",
"K  c #7C7B50",
"L  c #7E7E56",
"P  c #73735F",
"I  c #7D7F5F",
"U  c #7F7F5F",
"Y  c #606060",
"T  c #746766",
"R  c #757562",
"E  c #7B7A64",
"W  c #837968",
"Q  c #877E75",
"!  c #7C8642",
"~  c #7F8751",
"^  c #7E8372",
"/  c #808032",
"(  c #808040",
")  c #868548",
"_  c #868549",
"`  c #87844E",
"'  c #9A9A4F",
"]  c #808050",
"[  c #8B8752",
"{  c #808159",
"}  c #80815A",
"|  c #80815D",
" . c #8F855A",
".. c #898B5B",
"X. c #89895C",
"o. c #8B8B5D",
"O. c #8D8E5D",
"+. c #90865B",
"@. c #919254",
"#. c #959157",
"$. c #969258",
"%. c #91915E",
"&. c #AEA755",
"*. c #808060",
"=. c #8E8B67",
"-. c #8C8E67",
";. c #828269",
":. c #878768",
">. c #86866E",
",. c #8A816E",
"<. c #8D8E6F",
"1. c #91876E",
"2. c #8F9464",
"3. c #949461",
"4. c #9A9E61",
"5. c #939469",
"6. c #90926F",
"7. c #94976E",
"8. c #98976C",
"9. c #98976D",
"0. c #949A6D",
"q. c #949A6E",
"w. c #808170",
"e. c #8D8B72",
"r. c #888A76",
"t. c #8A8A78",
"y. c #8A8A79",
"u. c #8C8D78",
"i. c #908478",
"p. c #948678",
"a. c #96867E",
"s. c #949775",
"d. c #9E9670",
"f. c #979974",
"g. c #9E9872",
"h. c #92937A",
"j. c #A09A7F",
"k. c #9CA071",
"l. c #A0A071",
"z. c #A0A078",
"x. c #A6A67B",
"c. c #A1A37F",
"v. c #ABAC7D",
"b. c #CCCE79",
"n. c #9D9380",
"m. c #9B9781",
"M. c #A19B84",
"N. c #9FA180",
"B. c #A0A180",
"V. c #A6AC85",
"C. c #ACAE80",
"Z. c #ACAE81",
"A. c #B1A48B",
"S. c #BCBE8B",
"D. c #ADA792",
"F. c #B8B992",
"G. c #BBBD98",
"H. c #C1B79B",
"J. c None",
/* pixels */
"J.J.J.J.J.J.J.J.J.J.J.J.J.J.J.J.J.J.J.J.J.J.J.J.J.J.J.J.J.J.J.J.J.J.",
"J.$.w.x 0.A 0.$.x 4 J.J.J.J.J.J.J.J.J.J.J.J.J.J.u.J a 0 4.w U 1 A J.",
"J.W } 5 C t j k.S ( u.J.J.J.J.J.J.J.J.J.J.J.J.q.< Z O.] H 5 } C.0 J.",
"J.J.J.J.J./ > ;.1.Y 0 J.J.J.J.J.J.J.J.J.J.J.J.0 Q M.+.K V J.J.J.J.J.",
"J.J.J.J.J.J.z.T 1.( 1.q.J.J.J.J.J.J.J.J.J.J., s b.S.4.f.J.J.J.J.J.J.",
"J.J.J.J.J.J.*.x S *.z.u.J.J.J.J.J.J.J.J.J.J.( ,.E d X.{ J.J.J.J.J.J.",
"J.J.J.J.J.J.J.( 3 4.% z.b J.J.J.J.J.J.J.J.b . g.` , d J.J.J.J.J.J.J.",
"J.J.J.J.J.J.J.3 9 z.& [ J a 0 4.w U 1 A C.0 V.R p 6.( J.J.J.J.J.J.J.",
"J.J.J.J.J.J.J.J.' I a.5.1.9 z 5.y.* 3 u.u h O P n w.J.J.J.J.J.J.J.J.",
"J.J.J.J.J.J.J.J.n *.m &.; 1.d 1.7 8 3.F.o o.9 6 ' 3 J.J.J.J.J.J.J.J.",
"J.J.J.J.J.J.J.6.*.9 1.l.C C.$.w.x 0.A 0.$.x w.F :.3 Z J.J.J.J.J.J.J.",
"J.J.J.J.J.J.J., s *.z.*.K J.J.J.J.J.J.J.J.K x.x *.( 1.J.J.J.J.J.J.J.",
"J.J.J.J.J.J.X.n.,.E d 4.J.J.J.J.J.J.J.J.J.J.4.3 x 3 *.x J.J.J.J.J.J.",
"J.J.J.J.J.J.4.9.H.` x X.J.J.J.J.J.J.J.J.J.J.X.x 3 *.z.d J.J.J.J.J.J.",
"J.J.J.J.J.K q m.z 1., J.J.J.J.J.J.J.J.J.J.J.J., z.x 1./ *.J.J.J.J.J.",
"J.J a 0 4.] ..d.( Z 6.J.J.J.J.J.J.J.J.J.J.J.J.6.Z 3 *.t l.4.u.u h J.",
"J.0.v w.2.z ^ W 3 n J.J.J.J.J.J.J.J.J.J.J.J.J.J.n 3 $.k p.0.v w.2.J.",
"J.: @ g _ 3 B v.w.' J.J.J.J.J.J.J.J.J.J.J.J.J.J.' *.3 A ! C @ g _ J.",
"J.h u u.4.w.X + > ( 3 J.J.J.J.J.J.J.J.J.J.J.J.3 ( Z s.i.] w U 1 A J.",
"J.J.J.J.J.x.| C.2 d ( J.J.J.J.J.J.J.J.J.J.J.J.( Q M. .f.K J.J.J.J.J.",
"J.J.J.J.J.J.3 z.3 4.{ *.J.J.J.J.J.J.J.J.J.J.*.( b.S.3 4.J.J.J.J.J.J.",
"J.J.J.J.J.J.x ` z.<.f.z.J.J.J.J.J.J.J.J.J.J.z.,.E d s.X.J.J.J.J.J.J.",
"J.J.J.J.J.J.J.z.v.=.- V / J.J.J.J.J.J.J.J./ 1.y ` , ( J.J.J.J.J.J.J.",
"J.J.J.J.J.J.J.Z *.c ~ H C.C j v.N 3 _ g @ 3 h...z 3 6.J.J.J.J.J.J.J.",
"J.J.J.J.J.J.J.J.3 z j.D.i N.e.r.k p.0.v w.2.A.^ W n J.J.J.J.J.J.J.J.",
"J.J.J.J.J.J.J.J.*.D a 0 ( e U 1 A ! : @ g ) # B v.' J.J.J.J.J.J.J.J.",
"J.J.J.J.J.J.J.( 4.*.%.] x $.0.A 0.x w.$.C.C #.X + > 3 J.J.J.J.J.J.J.",
"J.J.J.J.J.J.J.Q d E M L 0 J.J.J.J.J.J.J.J.b G.| Z.2 ( J.J.J.J.J.J.J.",
"J.J.J.J.J.J.( 8.4.` , 0 J.J.J.J.J.J.J.J.J.J.0 z.3 3 >.*.J.J.J.J.J.J.",
"J.J.J.J.J.J.,.: - 4.c.( J.J.J.J.J.J.J.J.J.J.u.G -.= r z.J.J.J.J.J.J.",
"J.J.J.J.J.1.- @.l f u.J.J.J.J.J.J.J.J.J.J.J.J.0 ~ H i B./ J.J.J.J.J.",
"J.} C } C.h.^ W   7.b J.J.J.J.J.J.J.J.J.J.J.J.b j.D.4.w t C } W C.J.",
"J.: @ g _ $ N v.j 0 J.J.J.J.J.J.J.J.J.J.J.J.J.J.( 1.5.t.* 4.u.u h J.",
"J.J.J.J.J.J.J.J.J.J.J.J.J.J.J.J.J.J.J.J.J.J.J.J.J.J.J.J.J.J.J.J.J.J."
};
