/* XPM */
static char *_8b782ed2fb148c7d704ee0c6290df41Q2hJvCudq2vUNwBk[] = {
/* columns rows colors chars-per-pixel */
"32 32 16 1 ",
"  c #130701",
". c #271D01",
"X c #332601",
"o c #4D3901",
"O c #0D5C01",
"+ c #1A6A01",
"@ c #227001",
"# c #337D01",
"$ c #684C01",
"% c #815F01",
"& c #9B7201",
"* c #458901",
"= c #559601",
"- c #66A201",
"; c #77AF01",
": c #B58501",
/* pixels */
".. ... . ........ .+ .. .. . .+.",
" :&:&::&%o::&%:$.o:;*::%&$%:&;:$",
" &%$%%&$$$o&%$oX &$%*$%%%%$$#*Xo",
".%$$$%%&$%%$$$oX %$$=#o$$o*#$$oX",
" :%%$&%$o$oo$oXo.&%%$#$o%*#oXo$o",
".:%$o$%o$X$$oooX.%$o$$#$=*oXoXoX",
" %$o$%$o$oooXoXX %oXoo**ooX.XoXX",
".&o.$o$ooXoXoXXX.Xo$o*#ooX.X Xo.",
".  . ..... .   .. ...+ .. .. ...",
":&$&%%&$ &%$oXo&$$%$%#XX.%%&$%$$",
"$%$$%$$o.&$%$o$%o%$$%*$X &$%%$%%",
"oo%%$o$$ %$%$%o$oX$o*$oo.$%$$%$$",
"o$%$$$oo.&%$$$o$Xoo**o$X &$o$o$%",
"oo$ooXoX.%$o$o$oo$$#o$oo.$ooo$$o",
"X$$*ooXX &$$o$o$$Xo*ooXX.o$o$$oo",
"oX#o@XoX.oooooXooXo@oXoo.XooXooX",
"....O. . ..  . ... + ..... . ...",
".X%$&-$%%&%&$&$X X%-$%%%&%$&%&$%",
" %&$%#$%$%$%$%$o.&=*=$&$%$%%%%o$",
".:$$%$#$oo%$%$oo.%*$*o%$%$o$$o$o",
" :o%$o%#o$$oXoo@+-%%o*$oo$oo$$oo",
".%$$oXo$*oo@#@@# %$$o$#$ooX$ooXX",
".&ooo$oXo#+#XooX &$oooo#X.oooXoo",
".$$$ooX#@+ XooXX ooo$$X+. oXoXXX",
". .. +O+..O . .... . . O.    ...",
":$%$&*&X X$=&%%$%&&$&$X@.X$%&%$&",
"$o$$%*$$ %%*%$$%$$o$$%$@ %%$%$%%",
"%$oo#$oo.&==$$%$$oooo$oX+%$%$%$o",
"$%$$ooXX %*%$o$oo$o$oooo -%$o$o$",
"%$o$ooXo.-*$%ooooo$oo$X..-oo%o$o",
"o$$o$XoX.=$oooo..oo.Xo.X.$#o$Xo.",
"oXXX.oXo &oXXX..oX.XoXXo.Xo*XXX."
};
