/* XPM */
static char *result[] = {
/* columns rows colors chars-per-pixel */
"32 32 97 2 ",
"   c #C27300",
".  c #D07F00",
"X  c #CC7111",
"o  c #C68500",
"O  c #C98300",
"+  c #DD8100",
"@  c #D48E00",
"#  c #DA9500",
"$  c #D19A00",
"%  c #DD9C00",
"&  c #C78C11",
"*  c #DC9415",
"=  c #D1931E",
"-  c #DD9819",
";  c #E39200",
":  c #ED9400",
">  c #E49B00",
",  c #ED9C00",
"<  c #F19B00",
"1  c #D1A600",
"2  c #D0AA05",
"3  c #E7A400",
"4  c #EDA400",
"5  c #E6AB00",
"6  c #EDAC00",
"7  c #F4A400",
"8  c #F4AC00",
"9  c #F4AB09",
"0  c #EDB200",
"q  c #E5B800",
"w  c #F4B400",
"e  c #F4BB00",
"r  c #F9BB00",
"t  c #F4B50C",
"y  c #F4A91D",
"u  c #CC8F21",
"i  c #CB8F32",
"p  c #D5AE3E",
"a  c #DDAF39",
"s  c #F7BC24",
"d  c #F3BF29",
"f  c #F3B736",
"g  c #F4C400",
"h  c #FAC400",
"j  c #F4CC00",
"k  c #FECB00",
"l  c #ECD100",
"z  c #F7D500",
"x  c #FDD300",
"c  c #F7DC00",
"v  c #FDDD00",
"b  c #F7DE0B",
"n  c #F4C519",
"m  c #F3E700",
"M  c #FDE200",
"N  c #F6EB00",
"B  c #FEEC00",
"V  c #FEF300",
"C  c #FEFC00",
"Z  c #FEFE0E",
"A  c #FEFE10",
"S  c #DCC334",
"D  c #DFC937",
"F  c #F7DE25",
"G  c #FBD92C",
"H  c #F3C134",
"J  c #FBD43B",
"K  c #FDFD2E",
"L  c #FDFD30",
"P  c #E1AB49",
"I  c #F4C745",
"U  c #F2CB42",
"Y  c #F1C44C",
"T  c #F6DE40",
"R  c #F1C257",
"E  c #E2D057",
"W  c #E8D758",
"Q  c #F1D655",
"!  c #F2D15C",
"~  c #F6DE5A",
"^  c #ECE142",
"/  c #F3EC49",
"(  c #FCFC4F",
")  c #FCFC51",
"_  c #F0CA61",
"`  c #EFD466",
"'  c #EFDB66",
"]  c #F0D664",
"[  c #F1DD66",
"{  c #F5E366",
"}  c #F4EA66",
"|  c #F3EE6A",
" . c #F5F466",
".. c #F5FA66",
"X. c #F7F46B",
"o. c #FBFB70",
"O. c None",
/* pixels */
"O.O.O.O.O.O.O.O.O.O.O.O.v M M B B B V V O.O.O.O.O.O.O.O.O.O.O.O.",
"O.O.O.O.O.O.O.O.O.{ { G z k g k j z c M V C C O.O.O.O.O.O.O.O.O.",
"O.O.O.O.O.O.O.{ { [ I 8 8 8 8 w w w e e g c V C C O.O.O.O.O.O.O.",
"O.O.O.O.O.O.} { [ R 7 7 8 8 8 8 w w w e e e g c C C O.O.O.O.O.O.",
"O.O.O.O.O.} } ] _ y 7 7 7 8 8 8 8 w w w e e e e j V C O.O.O.O.O.",
"O.O.O.O. .{ ` ` f 7 7 7 7 7 8 6 M 8 w w w w e e g g V C O.O.O.O.",
"O.O.O...| ' ` Y 8 8 8 7 7 7 4 m C M w w w w e e e e g V C O.O.O.",
"O.O... .[ ` ! t w 8 8 8 7 < l C C C z 8 w w w e e e g j C C O.O.",
"O.O...| ` ' d w w w 8 8 8 q C C C C C g 8 w w w e e e g c C O.O.",
"O. ...[ ' U e e w w w 8 3 C C C C C C C r w w w w w e e g V C O.",
"O. .} ' Q g g e e w w g N C C C C C V C V k e w w w e e e c V O.",
"O.X.[ W n g g g g z M B B B B B B B B B B B B x j e w e e j V O.",
"{ } ] f e g z x v M M M M M M M v M v M M v v M v M z e 8 6 M V ",
"{ { Y w 0 o x x x x x x x x x x x x x x x x x x x x k % 4 6 z V ",
"{ ! 9 8 w @ % k k k k k k k k k k k k k k k k k k k > , 4 4 j B ",
"[ s 7 8 8 w   e k k k k k k k k k k k k k k k k k 0 > 4 , 4 g B ",
"J r 7 7 8 8 8   h k k k k k k k k k k k k k k k r ; , , , 4 e M ",
"k r 7 7 7 8 8 3 O k k k k k k k k k k k k k k k > , , , , 4 g M ",
"k r 7 < 7 7 7 8 . 6 k x k x k x k x k x x x x h : : : , > 4 g M ",
"k h 7 7 < : : : , $ M v M M M M M v M M M M M z : : : , < , k v ",
"O.k < : : : : : > 1 V V V V V V V V V V V V V M : , : : : , x O.",
"O.k 8 : : : : : : 2 Z Z Z Z Z Z A A A Z A A A b , , : : : w x O.",
"O.k h : : : : : : & K K K K L K K L L L L L L F , , , : , h x O.",
"O.O.k 8 : : : : : u ( ( ( ( ) ^ S D / ) ) ) ) T 4 4 , , 8 k O.O.",
"O.O.k k , : : : : i o.X.W a - , 6 5 # = p E | ~ 4 , 4 4 k x O.O.",
"O.O.O.k r : : : : X P . : < , 4 4 6 0 0 0 3 # - 4 4 4 k x O.O.O.",
"O.O.O.O.k r : : : : : : : : < , 4 6 6 6 0 0 6 6 6 6 z v O.O.O.O.",
"O.O.O.O.O.k r , : : : : : : : : , 4 6 6 6 0 0 6 0 c B O.O.O.O.O.",
"O.O.O.O.O.O.k k 8 : : : : : : : , , 4 4 6 6 0 z V V O.O.O.O.O.O.",
"O.O.O.O.O.O.O.k k h 8 : : : : : : , , 4 6 j N C C O.O.O.O.O.O.O.",
"O.O.O.O.O.O.O.O.O.k k k e w 8 7 7 w e j M B V O.O.O.O.O.O.O.O.O.",
"O.O.O.O.O.O.O.O.O.O.O.O.k k k k k k x x O.O.O.O.O.O.O.O.O.O.O.O."
};
