/* XPM */
static char *result[] = {
/* columns rows colors chars-per-pixel */
"32 32 123 2 ",
"   c #C27300",
".  c #D07F00",
"X  c #CC7111",
"o  c #C68500",
"O  c #C98300",
"+  c #D48E00",
"@  c #DA9200",
"#  c #D19A00",
"$  c #DB9E00",
"%  c #C78C11",
"&  c #DD8617",
"*  c #DD9819",
"=  c #ED9400",
"-  c #ED9C00",
";  c #F19B00",
":  c #ED9713",
">  c #D1A600",
",  c #D0AA05",
"<  c #E7A400",
"1  c #EDA300",
"2  c #E6AD00",
"3  c #EDAC00",
"4  c #F4A300",
"5  c #F4AC00",
"6  c #EDB200",
"7  c #E5B800",
"8  c #F4B400",
"9  c #F4BB00",
"0  c #F8BA00",
"q  c #EDB510",
"w  c #F2B31E",
"e  c #F3BF1E",
"r  c #CC8F21",
"t  c #CB8F32",
"y  c #ED9E27",
"u  c #EDA523",
"i  c #EDB42C",
"p  c #F4BE2C",
"a  c #EDA530",
"s  c #ECAC3D",
"d  c #EDB232",
"f  c #F4C300",
"g  c #FAC400",
"h  c #F4CB00",
"j  c #FDCB00",
"k  c #FECC0B",
"l  c #ECD100",
"z  c #F7D500",
"x  c #FDD400",
"c  c #F7DB00",
"v  c #FCDC00",
"b  c #FDD114",
"n  c #F3E700",
"m  c #FDE200",
"M  c #F6EB00",
"N  c #FEEB00",
"B  c #FEF300",
"V  c #FEFC00",
"C  c #FEFE0E",
"Z  c #FCEA14",
"A  c #FDCF22",
"S  c #FCD12F",
"D  c #F7DE28",
"F  c #F2C838",
"G  c #FBD238",
"H  c #FBDB3B",
"J  c #FDFD2E",
"K  c #FDFD33",
"L  c #FBF53E",
"P  c #ECA941",
"I  c #E1AB49",
"U  c #ECB745",
"Y  c #ECB94A",
"T  c #ECB553",
"R  c #ECBD5C",
"E  c #DFBF66",
"W  c #DABA6E",
"Q  c #E5BE66",
"!  c #EBBE60",
"~  c #E1BD6B",
"^  c #F2C445",
"/  c #FAD747",
"(  c #F6DE40",
")  c #F3DF4E",
"_  c #ECC650",
"`  c #ECC15A",
"'  c #EBCD5E",
"]  c #F0CF58",
"[  c #F6DC5A",
"{  c #F5F24E",
"}  c #FCFC4F",
"|  c #F8E952",
" . c #F6E15F",
".. c #F8F754",
"X. c #F6F25E",
"o. c #FBFC5E",
"O. c #DCC77F",
"+. c #E5C266",
"@. c #EBC366",
"#. c #ECCC65",
"$. c #EED466",
"%. c #EFDA66",
"&. c #EADD68",
"*. c #F0D665",
"=. c #F2DC66",
"-. c #E1CA7C",
";. c #E0D271",
":. c #E0D37E",
">. c #F5E266",
",. c #F4EC66",
"<. c #F3EE6A",
"1. c #F5FA66",
"2. c #F7F46B",
"3. c #F5FE6E",
"4. c #F6FD75",
"5. c #FBFB70",
"6. c #F8FD7B",
"7. c #E2D781",
"8. c #EAE889",
"9. c #EEF18E",
"0. c #F4FD81",
"q. c #F4FD94",
"w. c None",
/* pixels */
"w.w.w.w.w.w.w.w.w.w.w.w.m m m N N N B B w.w.w.w.w.w.w.w.w.w.w.w.",
"w.w.w.w.w.w.w.w.w.x x x x j f h h z c m B B V w.w.w.w.w.w.w.w.w.",
"w.w.w.w.w.w.w.x j j 0 8 5 5 8 8 8 9 9 9 h c M V V w.w.w.w.w.w.w.",
"w.w.w.w.w.w.x x 0 4 4 4 4 5 5 5 8 8 8 0 9 9 f c V V w.w.w.w.w.w.",
"w.w.w.w.w.m x 8 5 4 4 4 4 5 5 5 5 8 8 8 8 9 9 f h B C w.w.w.w.w.",
"w.w.w.w.N x 8 5 5 4 4 4 4 4 5 3 n 5 8 8 8 0 9 9 f h { 1.w.w.w.w.",
"w.w.w.B m 9 8 8 5 5 5 4 4 4 1 n V m 8 8 8 8 9 9 9 F =.1.1.w.w.w.",
"w.w.B B h 9 9 8 8 5 5 4 4 4 l V V V z 5 8 8 8 9 A $.&.>.1.1.w.w.",
"w.w.V m 9 9 9 8 8 8 5 5 5 7 V V V V V g 5 8 8 8 _ $.%.%.,.1.w.w.",
"w.B B h f f 9 9 8 8 8 5 < V V V V V V V 0 8 5 ^ $.$.%.%.&.1.1.w.",
"w.N c f f 9 9 9 9 8 8 f M V V B V V B V B x p *.$.$.%.%.%.,.1.w.",
"w.m f 9 f f h 9 f z m N N N N N N N N N N Z X.,.>.$.$.$.%.=...w.",
"v x 8 8 9 h x v m m m v m m m m v m m v m | ,.,.,.,.,.$.$.#.Z B ",
"j j 5 8 3 o x v x x v x x x x x x x x x H >.>.,.>.>.=.~ #.d z M ",
"j 0 5 5 8 + $ j j j j j j j j j j j j A =.>.=.>.>.>.+.#.Y 1 h N ",
"j 0 4 5 5 8   6 j j j j j j j j j j j [ >.>.>.>.>.$.@.` 1 1 f N ",
"j 0 4 4 5 5 5   g j j j j j j j j j / >.>.>.>.=.=.! @.u - 1 9 m ",
"j 0 4 ; 4 5 5 < O j j j j j j j j S >.>.>.>.>.>.+.@.s - - 1 f m ",
"j 0 4 4 4 4 4 5 . 2 x j j x x j b >.>.>.,.>.>.%.@.T = - - 1 f m ",
"j g 4 4 ; = = = - # m v m m m v | ,.,.,.,.,.,.&.R : = - - - j v ",
"w.j ; = = = = = - > B B B B B L 1.1.1.1.1.1.1.,.a = = = = - x w.",
"w.j 5 = = = = = = , C C C C J 3.3.3.3.3.4.5.4.) - - = = = 8 x w.",
"w.j g = = = = = = % J J K K 6.0.6.0.0.0.0.6.4.D 1 - - = - g x w.",
"w.w.j 5 = = = = = r } } ..6.q.9.:.7.9.q.q.q.o.( 1 - - - 5 j w.w.",
"w.w.j g ; = = = = t 5.2.%.7.~ @.;.#.+.W O.;.<.[ 1 1 - 1 j x w.w.",
"w.w.w.j g = = = = X I & ! Q #.#.#.#.#.$._ < @ * 1 1 1 x v w.w.w.",
"w.w.w.w.j 0 = = = = = T ! @.@.@.#.#.#.' q 6 3 3 1 1 x v w.w.w.w.",
"w.w.w.w.w.j 0 - = = P @.! Q @.@.@.#.#.i 6 6 6 3 6 n N w.w.w.w.w.",
"w.w.w.w.w.w.j j 5 y ! @.@.! @.@.@.#.U < 3 3 6 z M B w.w.w.w.w.w.",
"w.w.w.w.w.w.w.j k =.#.@.@.@.! @.@.R - 1 3 h M V V w.w.w.w.w.w.w.",
"w.w.w.w.w.w.w.w.w.>.>.=.=.$.#.#.#.w 9 z m N B w.w.w.w.w.w.w.w.w.",
"w.w.w.w.w.w.w.w.w.w.w.w.>.=.>.=.G j x x w.w.w.w.w.w.w.w.w.w.w.w."
};
