/* XPM */
static char *result[] = {
/* columns rows colors chars-per-pixel */
"32 32 128 2 ",
"   c #C27300",
".  c #C68500",
"X  c #C98300",
"o  c #D48E00",
"O  c #DA9500",
"+  c #DD9C00",
"@  c #DC9415",
"#  c #D1931E",
"$  c #DD9819",
"%  c #E39200",
"&  c #ED9400",
"*  c #E49B00",
"=  c #ED9C00",
"-  c #ED9408",
";  c #F19B00",
":  c #ED991B",
">  c #E7A400",
",  c #EDA400",
"<  c #E6A900",
"1  c #EDAC00",
"2  c #F4A400",
"3  c #F4AC00",
"4  c #EDB200",
"5  c #E5B800",
"6  c #F4B300",
"7  c #F4BC00",
"8  c #F8BA00",
"9  c #F4B814",
"0  c #D59239",
"q  c #D5AE3E",
"w  c #EDA122",
"e  c #EDA02C",
"r  c #F3B820",
"t  c #F3BA2D",
"y  c #ECA235",
"u  c #F4C300",
"i  c #FAC400",
"p  c #F4CB00",
"a  c #FDCB00",
"s  c #FECC0D",
"d  c #ECD100",
"f  c #F7D500",
"g  c #FDD400",
"h  c #F7DE00",
"j  c #FCDC00",
"k  c #F7DE0B",
"l  c #FDD51A",
"z  c #F3E700",
"x  c #FDE200",
"c  c #F6EB00",
"v  c #FDEB00",
"b  c #FEF300",
"n  c #FEFB00",
"m  c #FEF30C",
"M  c #FEFE0E",
"N  c #FDE114",
"B  c #FEFE10",
"V  c #FDFE1B",
"C  c #DCC334",
"Z  c #DFC937",
"A  c #F3CB27",
"S  c #FDCE20",
"D  c #FCCF28",
"F  c #F7DE25",
"G  c #F8CA32",
"H  c #F2C339",
"J  c #F2C93F",
"K  c #FCD233",
"L  c #FBD738",
"P  c #FCEE2D",
"I  c #FDFD2E",
"U  c #FDFD31",
"Y  c #DDB042",
"T  c #ECAA43",
"R  c #ECAF4A",
"E  c #ECB655",
"W  c #ECBC57",
"Q  c #ECBA5A",
"!  c #D7A969",
"~  c #DABB66",
"^  c #D4B26C",
"/  c #D7B574",
"(  c #E1B465",
")  c #ECBE61",
"_  c #FAD540",
"`  c #F6DE40",
"'  c #F1D54E",
"]  c #F9D74A",
"[  c #F9D94E",
"{  c #F1CD53",
"}  c #F0CC59",
"|  c #E2D057",
" . c #F0D05F",
".. c #F7DE5B",
"X. c #ECE142",
"o. c #FAEF44",
"O. c #F5EA49",
"+. c #F9E94D",
"@. c #FAF945",
"#. c #F8E153",
"$. c #F8E956",
"%. c #F6EB5F",
"&. c #FBFC52",
"*. c #F6F65D",
"=. c #F7FA5C",
"-. c #F9FD58",
";. c #DAC166",
":. c #D9C369",
">. c #EBC266",
",. c #E7CC66",
"<. c #EECE66",
"1. c #EFD466",
"2. c #EFD966",
"3. c #F0D564",
"4. c #F2DB66",
"5. c #F5E266",
"6. c #F4EC66",
"7. c #F3EE6A",
"8. c #F5F566",
"9. c #F5FC66",
"0. c #F5FE6D",
"q. c #E4C982",
"w. c #E6DE8E",
"e. c #F5FD80",
"r. c #F4FD94",
"t. c #F1F7A3",
"y. c #F3FCA6",
"u. c None",
/* pixels */
"u.u.u.u.u.u.u.u.u.u.u.u.x x x v v b b b u.u.u.u.u.u.u.u.u.u.u.u.",
"u.u.u.u.u.u.u.u.u.g g g g i i p p a h x m *.9.u.u.u.u.u.u.u.u.u.",
"u.u.u.u.u.u.u.g a a 8 6 3 3 6 6 6 6 7 7 ' 6.8.9.9.u.u.u.u.u.u.u.",
"u.u.u.u.u.u.g g 8 2 2 2 3 3 3 3 6 6 6 H 2.2.2.6.9.9.u.u.u.u.u.u.",
"u.u.u.u.u.x g 6 3 2 2 2 2 3 3 3 6 6 r 1.1.1.2.2.5.9.9.u.u.u.u.u.",
"u.u.u.u.v g 6 3 3 2 2 2 2 2 3 1 x 3 } 1.1.1.1.2.2.2.*.M u.u.u.u.",
"u.u.u.b x 7 6 6 3 3 3 2 2 2 , z n O.1.1.1.1.2.2.2.2.A b n u.u.u.",
"u.u.b b p 7 7 6 6 3 3 3 2 ; d n U 0.5.1.1.1.1.2.2.J 7 f n n u.u.",
"u.u.n x 7 7 7 6 6 6 3 3 2 5 n V 9.9.0.4.1.1.1.1.{ 4 7 u x n u.u.",
"u.b b p u 7 7 7 7 6 6 3 < n n -.9.9.9.9.1.1.1.} 9 7 7 7 u b n u.",
"u.v f u u u u 7 8 6 6 u c n @.8.9.9.8.9.8.5.3.t 6 6 8 7 7 h b u.",
"u.x p 7 u u u 7 u f x v v P 8.8.8.8.8.8.8.8.o.j p 7 6 7 8 p b u.",
"g j 6 8 7 u a j x j x x N 6.6.6.6.6.6.6.6.$.j x x x g 7 1 1 x b ",
"g i 3 6 4 . j g j g g g #.5.6.5.5.5.5.6.5.l g g g g a O , 1 f b ",
"a 8 2 3 6 o + g a a a L 5.5.4.5.4.5.5.5.K a a a a a + , , , p v ",
"a 8 2 3 3 6   4 a a D 5.5.5.5.5.5.5.5.] a a a a a 4 = = , , u v ",
"a 8 2 2 3 3 3   i s #.5.5.4.5.5.5.5...a a a a a i % = = , , 7 x ",
"a 8 ; 2 2 3 6 > X [ 5.5.5.5.5.5.5.5.S a a a a a * & & = = = u x ",
"a 8 2 2 2 2 3 2 0 ,.5.5.5.5.5.5.5.L a g a g g u & & & = = = u x ",
"a a 2 ; ; & & e >.~ 6.6.6.6.6.6.+.j x x x x x j & & & = = = a x ",
"u.a ; & & & - Q >.:.9.8.8.8.9.*.m b b b b b b f = & & & = , g u.",
"u.a 3 & & & R ) >.:.0.0.0.0.0.I B B B M B B B k = = = & & 3 g u.",
"u.a i & & y >.>.>.^ e.e.e.e.-.I I U U I U U U P = = & & & i g u.",
"u.u.a 3 : ) >.>.>./ r.r.r.e.&.X.C Z O.&.&.&.&.L , = = = 6 a u.u.",
"u.u.a a Q >.) >.>./ y.t.w.Y @ > 1 < O # q | 7..., , , , a g u.u.",
"u.u.u.] 4.>.>.>.>.! q.( e = = , , 1 4 4 4 > O $ , , , a j u.u.u.",
"u.u.u.u.5.1.>.>.) >.>.T - & & = , , 1 4 4 4 1 1 , 1 f x u.u.u.u.",
"u.u.u.u.u.5.4.>.>.>.E & & & & = = , , 1 4 4 4 1 4 h x u.u.u.u.u.",
"u.u.u.u.u.u.5.4.<.) : & & & & & = = , 1 1 1 4 f c b u.u.u.u.u.u.",
"u.u.u.u.u.u.u.5.5.G 3 & & & & & & = = , 1 p c n n u.u.u.u.u.u.u.",
"u.u.u.u.u.u.u.u.u.a a a 8 6 3 2 3 3 8 p x v b u.u.u.u.u.u.u.u.u.",
"u.u.u.u.u.u.u.u.u.u.u.u.a a a a a a a j u.u.u.u.u.u.u.u.u.u.u.u."
};
