/* XPM */
static char *result[] = {
/* columns rows colors chars-per-pixel */
"32 32 119 2 ",
"   c #D07F00",
".  c #CC7111",
"X  c #DD8100",
"o  c #DA9500",
"O  c #D19A00",
"+  c #DF9A00",
"@  c #C78C11",
"#  c #DC9415",
"$  c #D1931E",
"%  c #DD9819",
"&  c #E39200",
"*  c #ED9400",
"=  c #E49B00",
"-  c #ED9B00",
";  c #ED950F",
":  c #D1A600",
">  c #D0AA05",
",  c #EDA400",
"<  c #E7AC00",
"1  c #EDAB00",
"2  c #F1A700",
"3  c #F3AD00",
"4  c #EDB200",
"5  c #F4B400",
"6  c #F4BB00",
"7  c #F8BE00",
"8  c #F4BD0A",
"9  c #F4AA12",
"0  c #F4B219",
"q  c #CC8F21",
"w  c #CB8F32",
"e  c #CE9132",
"r  c #ED9A21",
"t  c #D5AE3E",
"y  c #DDAF39",
"u  c #F3AE2D",
"i  c #F3BB25",
"p  c #ECA53A",
"a  c #F2BF3E",
"s  c #F4C400",
"d  c #F9C300",
"f  c #F4CB00",
"g  c #FECB00",
"h  c #F7D500",
"j  c #FDD300",
"k  c #F7DC00",
"l  c #FDDD00",
"z  c #F7DE0B",
"x  c #FDCD13",
"c  c #F4C01C",
"v  c #FDCD18",
"b  c #FDE200",
"n  c #FDEB00",
"m  c #FEE10F",
"M  c #FEF300",
"N  c #FEFC00",
"B  c #FCF20F",
"V  c #FEFE0E",
"C  c #FEFE10",
"Z  c #DCC334",
"A  c #DFC937",
"S  c #F5C22C",
"D  c #FACC29",
"F  c #F7DE25",
"G  c #FCD92A",
"H  c #F3CC36",
"J  c #FDFE21",
"K  c #FDFD2E",
"L  c #FDFD31",
"P  c #FBF93A",
"I  c #E1AB49",
"U  c #ECB24F",
"Y  c #EFBD49",
"T  c #ECBA59",
"R  c #D2AA66",
"E  c #D4B166",
"W  c #DCBA66",
"Q  c #EBBF63",
"!  c #F2C244",
"~  c #F4CB46",
"^  c #F1CF4C",
"/  c #FAD642",
"(  c #F6DE40",
")  c #EFCA5D",
"_  c #F1C452",
"`  c #F1CD56",
"'  c #F0C75F",
"]  c #E2D057",
"[  c #E8D758",
"{  c #F8DB54",
"}  c #F2D35D",
"|  c #F6DE5A",
" . c #ECE142",
".. c #F3EC49",
"X. c #F9F04F",
"o. c #FBFD4E",
"O. c #F7E357",
"+. c #F6ED5E",
"@. c #FCFC51",
"#. c #F7FE5A",
"$. c #E0C166",
"%. c #EBC366",
"&. c #E6CA66",
"*. c #EFCC66",
"=. c #E6D166",
"-. c #EFD266",
";. c #EFDA66",
":. c #F1D465",
">. c #F2DC65",
",. c #EAE066",
"<. c #EFEE65",
"1. c #F4E366",
"2. c #F4EC65",
"3. c #F3EE6A",
"4. c #F4F366",
"5. c #F5FA65",
"6. c #F7F46B",
"7. c #FBFB70",
"8. c None",
/* pixels */
"8.8.8.8.8.8.8.8.8.8.8.8.2.2.4.4.4.6.5.6.8.8.8.8.8.8.8.8.8.8.8.8.",
"8.8.8.8.8.8.8.8.8.g j O.1.1.>.>.>.1.<.+.B N N 8.8.8.8.8.8.8.8.8.",
"8.8.8.8.8.8.8.j g g ~ *.-.*.-.-.-.>.-.S f h n N N 8.8.8.8.8.8.8.",
"8.8.8.8.8.8.j j 7 u *.*.*.-.-.-.-.=.! 6 6 6 s k N N 8.8.8.8.8.8.",
"8.8.8.8.8.l j 5 9 ' *.*.*.*.-.-.-.` 5 5 5 6 6 s f M N 8.8.8.8.8.",
"8.8.8.8.n l 5 3 _ *.*.*.*.*.*.*.+.0 5 5 5 6 6 6 s s M N 8.8.8.8.",
"8.8.8.n b 6 5 H -.*.*.*.*.*.&.2.L b 3 5 5 5 5 6 6 6 s M N 8.8.8.",
"8.8.N M f 5 i *.-.-.-.*.*.%.,.o.N N h 3 5 5 5 6 6 6 s f N N 8.8.",
"8.8.N k 6 8 [ ;.-.*.-.*.*.=.#.N N N N 7 3 5 5 5 6 6 6 s b N 8.8.",
"8.N M f s ^ :.:.;.-.-.-.&.5.J N N N N N 7 3 5 5 5 6 6 6 s M N 8.",
"8.n l s H ;.;.;.;.-.:.;.2.P N N N N N N n j 5 5 5 5 6 6 7 k N 8.",
"8.b f 0 >.;.;.>.>.1.3.4.X.n n n n n n n n n n l f 6 5 5 6 s M 8.",
"l j 5 ` >.;.1.2.3.2.2.2.m b l b l b b l b l b b l b h 6 1 1 n M ",
"j g Y -.*.E 1.2.2.1.1.G j j l j j j j j j j j j j j g + 1 , h n ",
"g S *.:.-.W $.1.1.>./ g g g g g g g g g g g g g g g + , , , f n ",
"v :.*.*.-.-.R =.1.{ g g g g g g g g g g g g g g g 4 - - , , s n ",
"{ :.%.*.*.:.:.R >.v g g g g g g g g g g g g g g d & - - - , 6 b ",
">.:.*.*.*.*.*.&.e g g g g g g g g g g g g g g g = - - - - , s b ",
"1.>.*.*.*.*.*.Y   < g j j g j g j j j g j g j d * * * - - , s b ",
">.>.' *.%.%.T ; - O b b b b b k l b b b b b b h * * * - - - g l ",
"8.1.*.Q Q Q r * - : M M M M M M N n N M M M M l - * * * * - h 8.",
"8.1.:.Q Q p * * * > V V V V C V C C V C C C C z - - * * * 5 j 8.",
"8.1.:.%.U * * * * @ K K L L K K K K L L L L L F - - - * - d j 8.",
"8.8.1.*.; * * * * q o.o.o.o.o. .Z A ..@.@.@.@.( , , - - 3 g 8.8.",
"8.8.1.D - * * * * w 7.6.} p # , 1 < o $ t ] 3.| , - , , g j 8.8.",
"8.8.8.g 7 * * * * . I   * - - , , 1 4 4 4 , o % , , , g l 8.8.8.",
"8.8.8.8.g 7 * * * * * * * * - - , , 1 4 4 4 < 1 1 1 j l 8.8.8.8.",
"8.8.8.8.8.g 7 - * * * * * * * - - , , < 4 4 4 4 4 k n 8.8.8.8.8.",
"8.8.8.8.8.8.g g 3 * * * * * * - - - , 1 1 1 4 f n M 8.8.8.8.8.8.",
"8.8.8.8.8.8.8.g g d 2 - * * * * * - - , 1 f M N N 8.8.8.8.8.8.8.",
"8.8.8.8.8.8.8.8.8.g g g 7 5 2 2 2 3 7 f b n M 8.8.8.8.8.8.8.8.8.",
"8.8.8.8.8.8.8.8.8.8.8.8.g g g g g g j j 8.8.8.8.8.8.8.8.8.8.8.8."
};
