/* XPM */
static char *result[] = {
/* columns rows colors chars-per-pixel */
"32 32 70 1 ",
"  c #C27400",
". c #D07F00",
"X c #CC7211",
"o c #C68500",
"O c #C98400",
"+ c #DE8200",
"@ c #D58E00",
"# c #DA9400",
"$ c #D19A00",
"% c #DB9F00",
"& c #C78C11",
"* c #DD9415",
"= c #D1931E",
"- c #DE9819",
"; c #E49200",
": c #EE9500",
"> c #E49B00",
", c #EE9C00",
"< c #F19B00",
"1 c #D1A600",
"2 c #D0AA05",
"3 c #EEA400",
"4 c #E6AD00",
"5 c #EEAB00",
"6 c #F5A300",
"7 c #F4AC00",
"8 c #EEB200",
"9 c #E5B800",
"0 c #F5B400",
"q c #F5BB00",
"w c #F9BB00",
"e c #CC9022",
"r c #CC8F32",
"t c #D5AE3F",
"y c #DEB03A",
"u c #F5C400",
"i c #FAC300",
"p c #F5CC00",
"a c #FECC00",
"s c #ECD100",
"d c #F6D700",
"f c #FDD300",
"g c #F7DB00",
"h c #FCDB00",
"j c #F7DE0C",
"k c #F3E700",
"l c #FDE200",
"z c #F6EB00",
"x c #FEEC00",
"c c #FEF300",
"v c #FEFC00",
"b c #FEFE0F",
"n c #FEFE11",
"m c #DCC335",
"M c #DFC938",
"N c #F7DE25",
"B c #FDFD2F",
"V c #FDFD30",
"C c #E2AC49",
"Z c #F7DE41",
"A c #E3D158",
"S c #E8D859",
"D c #F7DE5B",
"F c #ECE143",
"G c #F3EC4A",
"H c #FDFD51",
"J c #F4EF6B",
"K c #F8F56C",
"L c #FCFC70",
"P c None",
/* pixels */
"PPPPPPPPPPPPlllxxxccPPPPPPPPPPPP",
"PPPPPPPPPffffaauudglcvvPPPPPPPPP",
"PPPPPPPfaaw0777000qqugxvvPPPPPPP",
"PPPPPPffw6667770000qqqugvvPPPPPP",
"PPPPPhf06666677770000qqupcvPPPPP",
"PPPPxh0077666675l7000qqqqpcvPPPP",
"PPPclq007766663kvl0000qqquucvPPP",
"PPvcuq00077766svvvd7000qqqupvvPP",
"PPvlqqq0007769vvvvvu700qqqqqlvPP",
"Pccpuqqq00074vvvvvvvw70000qqucvP",
"Pxguuuuqq00uzcvvvvvccf0000qqugvP",
"Pluquuuquflxxxxxxxxxxxxhpq0qqucP",
"hf00wuahlllllllhllllllhllhfq75lc",
"fa708ohffffhffhffffffhffffp>35dc",
"aw770@1aaaaaaaaaaaaaaaaaaa%,33uc",
"a06770 0aaaaaaaaaaaaaaaaa8,3,3ux",
"aw66775 iaaaaaaaaaaaaaaai;,,,3qx",
"aw666773Oaaaaaaaaaaaaaaa>:,,3,ql",
"aw6<6677O5fafafaaffffffi::,,,,ul",
"ai66<:::,$llllllllllllld::::,,fh",
"Pa<:::::,1cccccccccccccl,:::,3fP",
"Pa7::::::2bbbnbnnnnnnnnj,,:::7fP",
"Pai::::::&BBVBVVBVVVVVVN,,,::ifP",
"PPa7:::::eHHHHHFmMGHHHHZ3,,,0aPP",
"PPaa<::::rLKSy*>55#=tAJD3333afPP",
"PPPai::::XC.:<,3358854#-336phPPP",
"PPPPaw::::::::<<3358855535dhPPPP",
"PPPPPaw,:::::::<,33588550gxPPPPP",
"PPPPPPaa7:::::::,,35558dxcPPPPPP",
"PPPPPPPaai7,:::::,,35pcvvPPPPPPP",
"PPPPPPPPPaaaq07777qplxcPPPPPPPPP",
"PPPPPPPPPPPPaaaaaaahPPPPPPPPPPPP"
};
