/* XPM */
static char *result[] = {
/* columns rows colors chars-per-pixel */
"32 32 100 2 ",
"   c #C27300",
".  c #D07F00",
"X  c #CC7111",
"o  c #C68500",
"O  c #C98300",
"+  c #DD8100",
"@  c #D48E00",
"#  c #D99700",
"$  c #D19A00",
"%  c #DD9C00",
"&  c #C78C11",
"*  c #DC9415",
"=  c #D1931E",
"-  c #E39200",
";  c #ED9400",
":  c #E49B00",
">  c #ED9B00",
",  c #F19B00",
"<  c #ED9F1B",
"1  c #D1A600",
"2  c #D0AA05",
"3  c #E7A400",
"4  c #EDA400",
"5  c #E6AB00",
"6  c #EDAC00",
"7  c #F4A400",
"8  c #F4AC00",
"9  c #EDB300",
"0  c #E5B800",
"q  c #F4B400",
"w  c #F4BB00",
"e  c #F8BA00",
"r  c #EDA710",
"t  c #EDA018",
"y  c #EDB212",
"u  c #CC8F21",
"i  c #CB8F32",
"p  c #ED9E21",
"a  c #D5AE3E",
"s  c #DDAF39",
"d  c #EDB42F",
"f  c #ECAD36",
"g  c #ECA83D",
"h  c #EDBA31",
"j  c #ECB038",
"k  c #F4C400",
"l  c #FAC400",
"z  c #F5CB00",
"x  c #FECB00",
"c  c #ECD100",
"v  c #FDD300",
"b  c #F7DC01",
"n  c #FCDD00",
"m  c #F3E700",
"M  c #FDE100",
"N  c #F6EB00",
"B  c #FEEB00",
"V  c #FDF300",
"C  c #FEFC00",
"Z  c #FEFE0E",
"A  c #FEFE10",
"S  c #DCC334",
"D  c #DFC937",
"F  c #FBD53F",
"G  c #FDFD2E",
"H  c #FDFD30",
"J  c #E1AB49",
"K  c #ECBC4F",
"L  c #ECB954",
"P  c #ECBC58",
"I  c #DFBC66",
"U  c #EBBF63",
"Y  c #EEC553",
"T  c #ECCC5F",
"R  c #E8D758",
"E  c #ECE142",
"W  c #F4EA49",
"Q  c #F9F649",
"!  c #FCFC4D",
"~  c #FCFC52",
"^  c #EBC466",
"/  c #EBCB66",
"(  c #E1C06A",
")  c #ECD266",
"_  c #EEDB66",
"`  c #F1DB66",
"'  c #E5D979",
"]  c #EFE166",
"[  c #F4E466",
"{  c #F4EC66",
"}  c #F5F466",
"|  c #F5FB66",
" . c #F7F46B",
".. c #F1EA76",
"X. c #FBFB70",
"o. c #F1EA85",
"O. c #F5FD8D",
"+. c #F0EA92",
"@. c #EEF2A1",
"#. c None",
/* pixels */
"#.#.#.#.#.#.#.#.#.#.#.#.M M M B B V V V #.#.#.#.#.#.#.#.#.#.#.#.",
"#.#.#.#.#.#.#.#.#.v v v v x k k z z b M V C C #.#.#.#.#.#.#.#.#.",
"#.#.#.#.#.#.#.v x x e 8 8 8 8 q q q w w k b B C C #.#.#.#.#.#.#.",
"#.#.#.#.#.#.v v e 7 7 7 8 8 8 q q q q w w w k b C C #.#.#.#.#.#.",
"#.#.#.#.#.M v q 8 7 7 7 7 8 8 8 q q q q w w w k z V C #.#.#.#.#.",
"#.#.#.#.B v w 8 8 7 7 7 7 7 8 6 b 8 q q q q w w k k V C #.#.#.#.",
"#.#.#.V M w q q 8 8 8 7 7 7 4 m C M q q q q w w w w k V C #.#.#.",
"#.#.V V z w q q q 8 8 8 7 , c C C C z q q q q w w w k z C C #.#.",
"#.#.C M k w w q q q 8 8 7 0 C C C C C k 8 q q q 9 k w w M C #.#.",
"#.V V k k w w q w q 8 8 5 C C C C C C C e 8 q q q w w w k V C #.",
"#.B b k k w k w w q q k N C V C C C V C V v q q q q w w w b V #.",
"#.M k w k k k w k b M B B B B B B B B B B B B n z w q w w z Q #.",
"n v q q w k v n n M M M M M M M n M M n M n M M n M v w 8 d { | ",
"v x 8 q 9 o v v v v v n v v v v v v v v v v v v v v x # r / [ } ",
"x e 8 8 q @ % v x x x x x x x x x x x x x x x x x x : 4 K / ] } ",
"x q 7 8 8 q   9 x x x x x x x x x x x x x x x x x 9 : f / / _ } ",
"x e 7 7 8 8 8   l x x x x x x x x x x x x x x x l - < ^ ^ / ) } ",
"x e 7 7 7 8 8 3 O x x x x x x x x x x x x x x x : > L ^ ^ / ` } ",
"x e , 7 7 7 8 8 . 6 x v v x v x v v v x x v v l ; g ^ ^ ^ / ` { ",
"x l 7 7 , ; ; ; > $ M M M M M M n M M M M M M n p U U ^ ^ ^ ` { ",
"#.x , ; ; ; ; ; : 1 V V V V V V V V V V V V V b P ^ U ^ ^ ^ [ #.",
"#.x 8 ; ; ; ; ; ; 2 Z Z Z Z Z Z A A A A A A A W ^ ^ ^ U ^ ) { #.",
"#.x l ; ; ; ; ; ; & G G G G G H G G H H H H ! ..^ ^ ^ ^ ^ ` [ #.",
"#.#.x 8 ; ; ; ; ; u ! ! ~ ! ~ E S D W ~ ~ ~ O.o./ ^ ^ ^ ) [ #.#.",
"#.#.x x > ; ; ; ; i X. .R j * : 6 3 # = a ' @.+./ / ^ / [ [ #.#.",
"#.#.#.x e ; ; ; ; X J . ; : > 4 4 5 9 9 h / I ( / / / [ [ #.#.#.",
"#.#.#.#.x e ; ; ; ; ; ; ; ; , > 4 4 6 y T ) ) / / / [ { #.#.#.#.",
"#.#.#.#.#.x l > ; ; ; ; ; ; ; > 4 4 5 Y ) ) ) ) ` {  .#.#.#.#.#.",
"#.#.#.#.#.#.x x 8 ; ; ; ; ; ; ; > > j / ) ) ) ] }  .#.#.#.#.#.#.",
"#.#.#.#.#.#.#.x x l 8 ; ; ; ; ; ; < ^ / ) _ } | | #.#.#.#.#.#.#.",
"#.#.#.#.#.#.#.#.#.x x x w q 8 8 7 Y ` [ { } | #.#.#.#.#.#.#.#.#.",
"#.#.#.#.#.#.#.#.#.#.#.#.x x x x F [ [ [ #.#.#.#.#.#.#.#.#.#.#.#."
};
