/* XPM */
static char *_41de4d4cc224a21cf1d1c1677a92a14idNd5JW0zkXJfw2f[] = {
/* columns rows colors chars-per-pixel */
"32 32 24 1 ",
"  c None",
". c black",
"X c gray19",
"o c #401000",
"O c #601800",
"+ c #604800",
"@ c #7F5A48",
"# c #800000",
"$ c #802000",
"% c #C00000",
"& c #E00000",
"* c red",
"= c #806000",
"- c #A07800",
"; c #FF4000",
": c #A05050",
"> c #A5765E",
", c #806060",
"< c #A07878",
"1 c #C09000",
"2 c #E0A800",
"3 c #CA8F72",
"4 c #E5A282",
"5 c #FFB691",
/* pixels */
"              5;54              ",
"             55;544          33 ",
"             ***;&%          43>",
"  3         34XX;XX3         4>@",
" >34        &*434&33         >@ ",
" >33        3***4&&%3       43> ",
" @>5       @%443##334>      3>@ ",
"  <44    43>@**####%%>34    4>@ ",
"  @34   43333@>>>>3>@>>34  43>  ",
"   >34 43>>@33@@@@@@33@>34 4>@  ",
"   @>4 43>@>3443333443 @>343>@  ",
"    >343>@@>4333>3433>  @>>>,@  ",
"    @>>>@ >@3333>3333@>  @>:>   ",
"     :,@  >3>>>>33>>>3>    @@   ",
"     @@  @>3444443333>>.        ",
"         @>3444444433>>.        ",
"         o>33444443333>.        ",
"         oO>>3333333>>o.        ",
"         -OO@>>>X>>>@oo.        ",
"         -1OO$$@@@@OOo-.        ",
"        +-=1O$$$$$$OO1+-......  ",
"        -11=2-2$$$$-11--......  ",
"       +-=@1-2-2-2-21=1+......  ",
"      ---1@12@22222@11@-.....   ",
"       -@1-2-@-2@-2@=1>......   ",
"        @3>->@@-.2@>3143....    ",
"        @442>@...2@>334>....    ",
"       @>33>@...  @>3>>....     ",
"       @>>>>@..    @>33....     ",
"       >333>..     @>>443.      ",
"       >>>@@.     .@@>>>>.      ",
"      .......     .......       "
};
